HIERARCHY
ROOT Hips
{
	OFFSET 0 0 0
	CHANNELS 6 Xposition Yposition Zposition Yrotation Xrotation Zrotation
	JOINT Spine
	{
		OFFSET -0 8.73536 -2.7844
		CHANNELS 3 Yrotation Xrotation Zrotation
		JOINT Spine1
		{
			OFFSET -0 11.2677 0
			CHANNELS 3 Yrotation Xrotation Zrotation
			JOINT Spine2
			{
				OFFSET -0 11.2677 0
				CHANNELS 3 Yrotation Xrotation Zrotation
				JOINT Spine3
				{
					OFFSET -0 11.2677 0
					CHANNELS 3 Yrotation Xrotation Zrotation
					JOINT Neck
					{
						OFFSET -0 13.4982 3.7844
						CHANNELS 3 Yrotation Xrotation Zrotation
						JOINT Head
						{
							OFFSET -0 10.9192 0
							CHANNELS 3 Yrotation Xrotation Zrotation
							End Site
							{
								OFFSET 0 15 0
							}
						}
					}
					JOINT LeftShoulder
					{
						OFFSET 1.81987 1.10026 3.63973
						CHANNELS 3 Yrotation Xrotation Zrotation
						JOINT LeftArm
						{
							OFFSET 16.8433 0 0
							CHANNELS 3 Yrotation Xrotation Zrotation
							JOINT LeftForeArm
							{
								OFFSET 29.2679 0 0
								CHANNELS 3 Yrotation Xrotation Zrotation
								JOINT LeftHand
								{
									OFFSET 23.0344 0 0
									CHANNELS 3 Yrotation Xrotation Zrotation
									End Site
									{
										OFFSET 15 0 0
									}
								}
							}
						}
					}
					JOINT RightShoulder
					{
						OFFSET -1.81987 1.10026 3.63973
						CHANNELS 3 Yrotation Xrotation Zrotation
						JOINT RightArm
						{
							OFFSET -16.8433 0 0
							CHANNELS 3 Yrotation Xrotation Zrotation
							JOINT RightForeArm
							{
								OFFSET -29.2679 0 0
								CHANNELS 3 Yrotation Xrotation Zrotation
								JOINT RightHand
								{
									OFFSET -23.0344 0 0
									CHANNELS 3 Yrotation Xrotation Zrotation
									End Site
									{
										OFFSET -15 0 0
									}
								}
							}
						}
					}
				}
			}
		}
	}
	JOINT LeftUpLeg
	{
		OFFSET 10.9192 -3.63973 2
		CHANNELS 3 Yrotation Xrotation Zrotation
		JOINT LeftLeg
		{
			OFFSET -0 -38.6359 2.54781
			CHANNELS 3 Yrotation Xrotation Zrotation
			JOINT LeftFoot
			{
				OFFSET -0 -42.9088 -2.54781
				CHANNELS 3 Yrotation Xrotation Zrotation
				JOINT LeftToeBase
				{
					OFFSET -0 -7.0265 16.3788
					CHANNELS 3 Yrotation Xrotation Zrotation
					End Site
					{
						OFFSET 0 0 5
					}
				}
			}
		}
	}
	JOINT RightUpLeg
	{
		OFFSET -10.9192 -3.63973 2
		CHANNELS 3 Yrotation Xrotation Zrotation
		JOINT RightLeg
		{
			OFFSET -0 -38.6359 2.54781
			CHANNELS 3 Yrotation Xrotation Zrotation
			JOINT RightFoot
			{
				OFFSET -0 -42.9088 -2.54781
				CHANNELS 3 Yrotation Xrotation Zrotation
				JOINT RightToeBase
				{
					OFFSET -0 -7.0265 16.3788
					CHANNELS 3 Yrotation Xrotation Zrotation
					End Site
					{
						OFFSET 0 0 5
					}
				}
			}
		}
	}
}
MOTION
Frames: 9
Frame Time: 0.00833333
-95.856769 94.317627 141.922925 2.403824 -3.117488 -1.167195 2.365620 3.403238 -2.520897 1.380923 3.651458 -1.600404 1.243220 3.072924 -0.489133 0.967933 3.058890 -0.246128 21.136145 2.522993 -13.712130 9.363392 3.804072 -9.850284 7.188680 10.585341 -0.892052 -83.503270 -6.018594 -42.406458 -44.971855 18.096804 -15.515207 14.119711 -17.243126 -7.022769 -4.962853 7.403099 -3.913510 70.111236 -19.475234 56.051395 36.772289 19.819089 21.026696 2.920082 -2.181366 5.593896 28.111415 -9.554403 12.069240 0.000000 14.176977 0.000000 4.735369 3.058136 -15.186358 0.000000 -14.221223 0.000000 -26.755426 -9.039553 -10.690386 0.000000 16.997965 0.000000 -2.090502 2.946411 14.921373 0.000000 -6.063970 0.000000
-96.034241 94.257593 141.798962 2.469451 -3.296418 -1.079777 2.185815 3.547681 -2.541881 1.193928 3.852548 -1.629995 1.165840 3.220204 -0.492912 0.964261 3.120192 -0.084079 20.423865 2.925058 -13.361466 8.994946 3.759953 -10.252886 7.337618 10.722755 -0.728778 -83.979883 -5.803276 -42.044075 -44.744278 17.608524 -15.260928 14.020403 -17.609393 -7.043081 -4.838786 7.432187 -3.809193 69.835828 -19.515468 55.971932 36.703380 18.987984 20.945975 2.811588 -1.566310 5.977290 27.561378 -9.337369 12.118589 0.000000 14.142037 0.000000 5.055638 2.883036 -15.036828 0.000000 -14.381741 0.000000 -26.831681 -9.602855 -10.782066 0.000000 18.104296 0.000000 -1.882024 2.958811 15.050464 0.000000 -6.227445 0.000000
-96.204541 94.195844 141.676135 2.383355 -3.442542 -0.978585 2.107685 3.675638 -2.590146 1.034409 4.027852 -1.592239 1.107069 3.345659 -0.389007 1.015812 3.241322 0.114738 19.558603 3.399925 -13.396469 8.585236 3.480101 -10.346132 7.303808 10.860470 -0.736656 -83.988261 -5.964349 -41.816849 -44.623088 17.539240 -15.196990 13.941915 -17.651268 -6.972187 -4.977669 7.557809 -3.886515 69.951661 -19.652944 55.622214 36.477567 18.254148 20.871331 2.818709 -1.164464 6.198623 27.074228 -9.168405 12.158524 0.000000 14.213874 0.000000 5.438798 2.592480 -15.102591 0.000000 -14.377821 0.000000 -26.794504 -10.423582 -10.870853 0.000000 19.532393 0.000000 -1.526304 2.978075 15.141388 0.000000 -6.496700 0.000000
-96.377130 94.127197 141.527307 2.273054 -3.655477 -0.865111 2.018963 3.859326 -2.486703 0.971749 4.307662 -1.634775 1.034455 3.527909 -0.446910 0.954387 3.304683 0.130347 18.605216 3.502832 -13.175073 8.139748 3.444076 -10.478367 7.471644 11.019365 -0.485386 -84.045891 -6.144478 -41.377409 -44.589265 17.318201 -15.186382 13.904946 -17.301669 -6.925706 -4.977485 7.578107 -3.765858 70.118293 -19.670273 55.282181 36.708020 18.168425 20.809202 2.904581 -1.320005 6.700910 26.579387 -8.911360 12.226092 0.000000 14.217293 0.000000 5.962551 2.440437 -15.090418 0.000000 -14.637353 0.000000 -26.701209 -11.224968 -10.997332 0.000000 20.994547 0.000000 -1.220454 3.042058 15.242428 0.000000 -6.452576 0.000000
-96.537579 94.055719 141.399390 2.134842 -3.757227 -0.699832 1.811287 4.042634 -2.721845 0.748605 4.371176 -1.547123 1.041816 3.584919 -0.026454 1.087709 3.573339 -0.060444 17.511763 3.765059 -13.297570 7.650443 3.034679 -10.310852 7.547098 11.049780 -0.513298 -84.031102 -6.147435 -41.166847 -44.627469 17.225688 -14.968490 13.792662 -17.430280 -6.987766 -5.053597 7.637405 -3.829321 70.396369 -19.872209 54.896805 36.613251 18.079850 20.665291 2.891256 -1.450583 6.922103 26.259520 -8.782087 12.213722 0.000000 14.319924 0.000000 6.281940 2.232700 -15.289346 0.000000 -14.680669 0.000000 -26.697968 -12.132521 -11.134250 0.000000 22.378836 0.000000 -0.779037 3.054223 15.316082 0.000000 -6.574115 0.000000
-96.719189 93.974939 141.242358 1.957608 -3.839552 -0.601293 1.829118 4.221235 -2.549199 0.710776 4.496270 -1.473740 1.026944 3.796205 -0.266801 1.053181 3.532093 0.100876 16.293369 4.026689 -13.174829 7.078775 2.631786 -10.444697 7.472799 11.404643 -0.514107 -83.894527 -6.306655 -40.702687 -44.743713 17.121912 -15.055112 13.893495 -17.392587 -6.632428 -5.378634 7.711232 -3.808464 70.986682 -19.842435 54.471239 36.716679 18.243169 20.458332 2.608651 -1.638322 7.015414 25.983683 -8.826984 12.287128 0.000000 14.602373 0.000000 6.560598 1.999860 -15.606126 0.000000 -14.742427 0.000000 -26.762873 -13.118333 -11.157072 0.000000 23.848170 0.000000 -0.275178 3.151776 15.206839 0.000000 -6.842502 0.000000
-96.886841 93.886804 141.109412 1.850497 -3.951026 -0.455214 1.640570 4.438781 -2.484517 0.575728 4.679995 -1.522631 0.949172 3.836242 -0.316174 0.958229 3.622282 0.022707 15.245299 4.019061 -12.952469 6.584329 2.086401 -10.607784 7.853636 11.475075 -0.198585 -83.828559 -6.640249 -40.635278 -44.637576 17.199555 -14.846090 13.852646 -17.553386 -6.597131 -5.372178 7.658812 -3.665197 71.434996 -19.959105 54.139625 36.796567 18.840298 20.410636 2.770857 -1.887535 7.806993 25.836561 -8.862492 12.299122 0.000000 14.870731 0.000000 6.762903 1.831742 -15.873511 0.000000 -14.633986 0.000000 -27.107588 -14.058271 -11.275744 0.000000 25.186720 0.000000 0.458645 3.220713 15.099213 0.000000 -7.083152 0.000000
-97.084784 93.782642 140.968262 1.736478 -3.931592 -0.366118 1.454183 4.609091 -2.502649 0.432266 4.663317 -1.464588 0.929602 3.837175 -0.229306 1.065635 3.884917 0.259119 13.883924 4.095613 -13.172641 5.967982 1.465045 -10.843741 7.758993 11.632741 -0.410652 -83.581827 -6.896250 -40.474719 -44.712916 17.275805 -14.703742 14.213463 -17.581756 -6.570918 -5.422088 7.441044 -3.908243 71.510254 -20.012848 53.977308 37.034448 19.251730 20.466015 2.537658 -2.217924 7.588295 25.797729 -9.155698 12.331216 0.000000 15.252037 0.000000 6.853117 1.736642 -16.133287 0.000000 -14.471460 0.000000 -27.446556 -15.061139 -11.263329 0.000000 26.499399 0.000000 1.179459 3.329945 15.185804 0.000000 -7.456955 0.000000
-97.253809 93.666565 140.850085 1.529158 -4.015399 -0.248430 1.372250 4.809888 -2.247873 0.412869 4.717089 -1.445377 0.941597 3.956300 -0.486012 1.043501 3.815081 0.332592 12.463850 4.182544 -12.822371 5.290851 1.006795 -11.556614 7.757007 11.890303 -0.240546 -83.308700 -7.330378 -40.370820 -44.583455 17.364795 -14.729928 13.968488 -17.560490 -6.513149 -5.769077 7.601114 -3.771350 72.084608 -20.061764 53.414845 37.023562 19.430525 20.609261 2.447426 -2.879325 7.454530 25.999924 -9.294657 12.373665 0.000000 15.521613 0.000000 6.818586 1.686244 -16.215306 0.000000 -14.386874 0.000000 -27.810727 -15.957384 -11.339249 0.000000 27.746821 0.000000 2.031772 3.386237 15.301913 0.000000 -7.761790 0.000000
